<?xml version="1.0" encoding="UTF-8"?>
<svg version="1.1" xmlns="http://www.w3.org/2000/svg" width="512" height="512">
<path d="M0 0 C2.48728797 1.92985867 4.86256478 3.93163235 7.21484375 6.0234375 C7.96121094 6.67570312 8.70757812 7.32796875 9.4765625 8 C25.92881359 23.33246437 35.131716 45.23533693 36.41796875 67.546875 C36.70558535 91.17937262 29.93660137 114.53338291 13.21484375 132.0234375 C12.55484375 132.0234375 11.89484375 132.0234375 11.21484375 132.0234375 C10.8590625 132.89355469 10.8590625 132.89355469 10.49609375 133.78125 C4.06079444 145.04302379 -12.96612167 151.71479712 -24.78515625 155.0234375 C-28.98250777 156.07117388 -33.19552182 157.04790216 -37.41015625 158.0234375 C-53.92952251 161.23845415 -53.92952251 161.23845415 -66.73828125 171.2734375 C-70.26568289 177.1699895 -70.60823821 183.12789206 -69.21484375 189.72265625 C-68.21931656 193.45320616 -68.21931656 193.45320616 -66.78515625 197.0234375 C-65.79515625 197.3534375 -64.80515625 197.6834375 -63.78515625 198.0234375 C-63.78515625 198.6834375 -63.78515625 199.3434375 -63.78515625 200.0234375 C-60.61362729 201.39776671 -57.40440144 202.47151768 -54.09765625 203.4609375 C-53.22753906 203.72261719 -52.35742188 203.98429688 -51.4609375 204.25390625 C-49.73868148 204.749212 -48.00684855 205.21288604 -46.265625 205.63671875 C-35.16567196 208.48599803 -25.26431249 216.12553688 -19.02734375 225.73046875 C-12.98268069 236.40353324 -10.64451894 247.85275268 -13.47265625 259.96875 C-14.40974904 262.45985499 -15.48140291 264.70429993 -16.78515625 267.0234375 C-17.20925781 267.79042969 -17.63335937 268.55742187 -18.0703125 269.34765625 C-24.20062286 279.40546349 -33.41875662 286.93965179 -44.921875 289.8046875 C-57.51368911 292.06972388 -67.25832486 290.70995516 -78.09765625 283.9609375 C-78.98453125 283.3215625 -79.87140625 282.6821875 -80.78515625 282.0234375 C-81.56890625 281.4871875 -82.35265625 280.9509375 -83.16015625 280.3984375 C-83.96453125 279.7178125 -83.96453125 279.7178125 -84.78515625 279.0234375 C-84.78515625 278.3634375 -84.78515625 277.7034375 -84.78515625 277.0234375 C-85.44515625 277.0234375 -86.10515625 277.0234375 -86.78515625 277.0234375 C-88.40625 274.86328125 -88.40625 274.86328125 -90.22265625 271.9609375 C-90.81949219 271.02121094 -91.41632813 270.08148438 -92.03125 269.11328125 C-96.22795883 261.71997015 -97.30534969 256.08867102 -97.78515625 247.6484375 C-98.44557856 236.1210663 -100.02399222 226.65657566 -108.59765625 218.2734375 C-114.53540067 214.08208849 -120.70143296 213.29598443 -127.78515625 214.0234375 C-139.50974971 216.07219864 -145.9067096 224.91959648 -152.52734375 234.0546875 C-163.14216937 248.01189766 -177.35188462 256.43850412 -194.78515625 259.0234375 C-213.58422121 260.53949113 -229.25723771 256.33264997 -244.23828125 244.5390625 C-244.74875 244.03890625 -245.25921875 243.53875 -245.78515625 243.0234375 C-245.78515625 242.3634375 -245.78515625 241.7034375 -245.78515625 241.0234375 C-246.42453125 240.7553125 -247.06390625 240.4871875 -247.72265625 240.2109375 C-249.78515625 239.0234375 -249.78515625 239.0234375 -250.78515625 236.0234375 C-251.44515625 236.0234375 -252.10515625 236.0234375 -252.78515625 236.0234375 C-264.54183925 222.37051531 -266.80117263 205.13925017 -266.02783203 187.88183594 C-264.52760429 170.21114543 -254.1115312 155.95174063 -240.97265625 144.7109375 C-228.71176389 135.34051745 -212.03087953 131.49526948 -196.78515625 133.0234375 C-188.3870547 134.39396102 -181.20258372 137.21182462 -173.59838867 140.88525391 C-160.30925893 147.48215189 -160.30925893 147.48215189 -145.78515625 147.0234375 C-138.40827684 144.00383486 -132.93408455 139.44868818 -129.78515625 132.0234375 C-127.52248395 119.67373753 -132.19058981 109.22577769 -136.62109375 97.94140625 C-144.51097682 77.25918851 -141.93936889 54.80999051 -133.15625 34.86328125 C-130.87990697 30.1484625 -128.38704978 25.56557465 -125.78515625 21.0234375 C-125.12515625 21.0234375 -124.46515625 21.0234375 -123.78515625 21.0234375 C-123.53765625 20.3015625 -123.29015625 19.5796875 -123.03515625 18.8359375 C-120.70383115 13.59045603 -117.02936451 10.21360294 -112.6640625 6.6484375 C-110.64584435 4.95320871 -110.64584435 4.95320871 -108.44140625 2.5859375 C-79.44204692 -25.38991503 -30.8259186 -21.87645836 0 0 Z " fill="#1982FF" transform="translate(369.78515625,119.9765625)"/>
</svg>
